<svg width="78" height="78" viewBox="0 0 78 78" fill="none" xmlns="http://www.w3.org/2000/svg">
<path opacity="0.7" d="M39 8C39 3.58172 42.5817 0 47 0H70C74.4183 0 78 3.58172 78 8V31C78 35.4183 74.4183 39 70 39H47C42.5817 39 39 35.4183 39 31V8Z" fill="#7ED957"/>
<path opacity="0.7" d="M0 47C0 42.5817 3.58172 39 8 39H31C35.4183 39 39 42.5817 39 47V70C39 74.4183 35.4183 78 31 78H8C3.58172 78 0 74.4183 0 70V47Z" fill="#5DF11D"/>
<path opacity="0.7" d="M39 47C39 42.5817 42.5817 39 47 39H70C74.4183 39 78 42.5817 78 47V70C78 74.4183 74.4183 78 70 78H47C42.5817 78 39 74.4183 39 70V47Z" fill="#49F154"/>
<mask id="path-4-outside-1_2_28" maskUnits="userSpaceOnUse" x="13" y="8" width="55" height="62" fill="black">
<rect fill="white" x="13" y="8" width="55" height="62"/>
<path d="M20.78 69V58.47H38.06C41.42 58.47 44.21 57.75 46.43 56.31C48.65 54.81 50.33 52.65 51.47 49.83C52.61 47.01 53.18 43.56 53.18 39.48C53.18 36.12 52.82 33.24 52.1 30.84C51.38 28.38 50.3 26.37 48.86 24.81C47.48 23.25 45.71 22.08 43.55 21.3C41.45 20.52 38.96 20.13 36.08 20.13H20.78V9.6H35.63C42.83 9.6 48.71 10.77 53.27 13.11C57.83 15.45 61.19 18.81 63.35 23.19C65.51 27.51 66.59 32.7 66.59 38.76C66.59 43.32 66.05 47.28 64.97 50.64C63.89 54 62.42 56.85 60.56 59.19C58.76 61.53 56.66 63.42 54.26 64.86C51.86 66.3 49.31 67.35 46.61 68.01C43.91 68.67 41.18 69 38.42 69H20.78ZM14.57 69V9.6H27.53V69H14.57Z"/>
</mask>
<path d="M20.78 69V58.47H38.06C41.42 58.47 44.21 57.75 46.43 56.31C48.65 54.81 50.33 52.65 51.47 49.83C52.61 47.01 53.18 43.56 53.18 39.48C53.18 36.12 52.82 33.24 52.1 30.84C51.38 28.38 50.3 26.37 48.86 24.81C47.48 23.25 45.71 22.08 43.55 21.3C41.45 20.52 38.96 20.13 36.08 20.13H20.78V9.6H35.63C42.83 9.6 48.71 10.77 53.27 13.11C57.83 15.45 61.19 18.81 63.35 23.19C65.51 27.51 66.59 32.7 66.59 38.76C66.59 43.32 66.05 47.28 64.97 50.64C63.89 54 62.42 56.85 60.56 59.19C58.76 61.53 56.66 63.42 54.26 64.86C51.86 66.3 49.31 67.35 46.61 68.01C43.91 68.67 41.18 69 38.42 69H20.78ZM14.57 69V9.6H27.53V69H14.57Z" fill="#1F1F1F"/>
<path d="M20.78 69H19.78V70H20.78V69ZM20.78 58.47V57.47H19.78V58.47H20.78ZM46.43 56.31L46.9742 57.149L46.9821 57.1438L46.9899 57.1386L46.43 56.31ZM51.47 49.83L50.5429 49.4552L50.5429 49.4552L51.47 49.83ZM52.1 30.84L51.1402 31.1209L51.1422 31.1273L52.1 30.84ZM48.86 24.81L48.111 25.4726L48.118 25.4805L48.1252 25.4883L48.86 24.81ZM43.55 21.3L43.2018 22.2375L43.2104 22.2406L43.55 21.3ZM20.78 20.13H19.78V21.13H20.78V20.13ZM20.78 9.6V8.6H19.78V9.6H20.78ZM53.27 13.11L53.7266 12.2203L53.7266 12.2203L53.27 13.11ZM63.35 23.19L62.4531 23.6323L62.4556 23.6372L63.35 23.19ZM60.56 59.19L59.7772 58.5678L59.7722 58.574L59.7674 58.5803L60.56 59.19ZM54.26 64.86L53.7455 64.0025L53.7455 64.0025L54.26 64.86ZM14.57 69H13.57V70H14.57V69ZM14.57 9.6V8.6H13.57V9.6H14.57ZM27.53 9.6H28.53V8.6H27.53V9.6ZM27.53 69V70H28.53V69H27.53ZM21.78 69V58.47H19.78V69H21.78ZM20.78 59.47H38.06V57.47H20.78V59.47ZM38.06 59.47C41.5614 59.47 44.5536 58.7191 46.9742 57.149L45.8858 55.471C43.8664 56.7809 41.2786 57.47 38.06 57.47V59.47ZM46.9899 57.1386C49.3963 55.5126 51.193 53.1834 52.3971 50.2048L50.5429 49.4552C49.467 52.1166 47.9037 54.1074 45.8701 55.4814L46.9899 57.1386ZM52.3971 50.2048C53.5986 47.2326 54.18 43.6471 54.18 39.48H52.18C52.18 43.4729 51.6214 46.7874 50.5429 49.4552L52.3971 50.2048ZM54.18 39.48C54.18 36.0536 53.8135 33.0714 53.0578 30.5526L51.1422 31.1273C51.8265 33.4085 52.18 36.1864 52.18 39.48H54.18ZM53.0597 30.5591C52.3053 27.9814 51.1589 25.8262 49.5948 24.1317L48.1252 25.4883C49.4411 26.9138 50.4547 28.7786 51.1403 31.1209L53.0597 30.5591ZM49.609 24.1474C48.1069 22.4494 46.1907 21.1904 43.8896 20.3594L43.2104 22.2406C45.2293 22.9696 46.8531 24.0506 48.111 25.4726L49.609 24.1474ZM43.8982 20.3626C41.66 19.5313 39.0465 19.13 36.08 19.13V21.13C38.8735 21.13 41.24 21.5087 43.2018 22.2374L43.8982 20.3626ZM36.08 19.13H20.78V21.13H36.08V19.13ZM21.78 20.13V9.6H19.78V20.13H21.78ZM20.78 10.6H35.63V8.6H20.78V10.6ZM35.63 10.6C42.7316 10.6 48.4401 11.7555 52.8134 13.9997L53.7266 12.2203C48.9799 9.7845 42.9284 8.6 35.63 8.6V10.6ZM52.8134 13.9997C57.1926 16.2469 60.393 19.4548 62.4531 23.6323L64.2469 22.7477C61.987 18.1652 58.4675 14.6531 53.7266 12.2203L52.8134 13.9997ZM62.4556 23.6372C64.5307 27.7875 65.59 32.8167 65.59 38.76H67.59C67.59 32.5833 66.4893 27.2325 64.2444 22.7428L62.4556 23.6372ZM65.59 38.76C65.59 43.2448 65.0585 47.0969 64.018 50.334L65.922 50.946C67.0415 47.4631 67.59 43.3952 67.59 38.76H65.59ZM64.018 50.334C62.9683 53.5995 61.55 56.3375 59.7772 58.5678L61.3428 59.8122C63.29 57.3625 64.8117 54.4005 65.922 50.946L64.018 50.334ZM59.7674 58.5803C58.0395 60.8265 56.0323 62.6304 53.7455 64.0025L54.7745 65.7175C57.2877 64.2096 59.4805 62.2335 61.3526 59.7997L59.7674 58.5803ZM53.7455 64.0025C51.431 65.3912 48.9743 66.4026 46.3725 67.0386L46.8475 68.9814C49.6457 68.2974 52.289 67.2088 54.7745 65.7175L53.7455 64.0025ZM46.3725 67.0386C43.7497 67.6797 41.0994 68 38.42 68V70C41.2606 70 44.0703 69.6603 46.8475 68.9814L46.3725 67.0386ZM38.42 68H20.78V70H38.42V68ZM15.57 69V9.6H13.57V69H15.57ZM14.57 10.6H27.53V8.6H14.57V10.6ZM26.53 9.6V69H28.53V9.6H26.53ZM27.53 68H14.57V70H27.53V68Z" fill="white" mask="url(#path-4-outside-1_2_28)"/>
<path opacity="0.7" d="M0 8C0 3.58172 3.58172 0 8 0H31C35.4183 0 39 3.58172 39 8V31C39 35.4183 35.4183 39 31 39H8C3.58172 39 0 35.4183 0 31V8Z" fill="#4AFD3A"/>
</svg>
