<svg width="78" height="78" viewBox="0 0 78 78" fill="none" xmlns="http://www.w3.org/2000/svg">
<path opacity="0.7" d="M39 8C39 3.58172 42.5817 0 47 0H70C74.4183 0 78 3.58172 78 8V31C78 35.4183 74.4183 39 70 39H47C42.5817 39 39 35.4183 39 31V8Z" fill="#7ED957"/>
<path opacity="0.7" d="M0 47C0 42.5817 3.58172 39 8 39H31C35.4183 39 39 42.5817 39 47V70C39 74.4183 35.4183 78 31 78H8C3.58172 78 0 74.4183 0 70V47Z" fill="#5DF11D"/>
<path opacity="0.7" d="M39 47C39 42.5817 42.5817 39 47 39H70C74.4183 39 78 42.5817 78 47V70C78 74.4183 74.4183 78 70 78H47C42.5817 78 39 74.4183 39 70V47Z" fill="#49F154"/>
<mask id="path-4-outside-1_2_29" maskUnits="userSpaceOnUse" x="14" y="8" width="55" height="62" fill="black">
<rect fill="white" x="14" y="8" width="55" height="62"/>
<path d="M21.78 69V58.47H39.06C42.42 58.47 45.21 57.75 47.43 56.31C49.65 54.81 51.33 52.65 52.47 49.83C53.61 47.01 54.18 43.56 54.18 39.48C54.18 36.12 53.82 33.24 53.1 30.84C52.38 28.38 51.3 26.37 49.86 24.81C48.48 23.25 46.71 22.08 44.55 21.3C42.45 20.52 39.96 20.13 37.08 20.13H21.78V9.6H36.63C43.83 9.6 49.71 10.77 54.27 13.11C58.83 15.45 62.19 18.81 64.35 23.19C66.51 27.51 67.59 32.7 67.59 38.76C67.59 43.32 67.05 47.28 65.97 50.64C64.89 54 63.42 56.85 61.56 59.19C59.76 61.53 57.66 63.42 55.26 64.86C52.86 66.3 50.31 67.35 47.61 68.01C44.91 68.67 42.18 69 39.42 69H21.78ZM15.57 69V9.6H28.53V69H15.57Z"/>
</mask>
<path d="M21.78 69V58.47H39.06C42.42 58.47 45.21 57.75 47.43 56.31C49.65 54.81 51.33 52.65 52.47 49.83C53.61 47.01 54.18 43.56 54.18 39.48C54.18 36.12 53.82 33.24 53.1 30.84C52.38 28.38 51.3 26.37 49.86 24.81C48.48 23.25 46.71 22.08 44.55 21.3C42.45 20.52 39.96 20.13 37.08 20.13H21.78V9.6H36.63C43.83 9.6 49.71 10.77 54.27 13.11C58.83 15.45 62.19 18.81 64.35 23.19C66.51 27.51 67.59 32.7 67.59 38.76C67.59 43.32 67.05 47.28 65.97 50.64C64.89 54 63.42 56.85 61.56 59.19C59.76 61.53 57.66 63.42 55.26 64.86C52.86 66.3 50.31 67.35 47.61 68.01C44.91 68.67 42.18 69 39.42 69H21.78ZM15.57 69V9.6H28.53V69H15.57Z" fill="white"/>
<path d="M21.78 69H20.78V70H21.78V69ZM21.78 58.47V57.47H20.78V58.47H21.78ZM47.43 56.31L47.9742 57.149L47.9821 57.1438L47.9899 57.1386L47.43 56.31ZM52.47 49.83L51.5429 49.4552L51.5429 49.4552L52.47 49.83ZM53.1 30.84L52.1402 31.1209L52.1422 31.1273L53.1 30.84ZM49.86 24.81L49.111 25.4726L49.118 25.4805L49.1252 25.4883L49.86 24.81ZM44.55 21.3L44.2018 22.2375L44.2104 22.2406L44.55 21.3ZM21.78 20.13H20.78V21.13H21.78V20.13ZM21.78 9.6V8.6H20.78V9.6H21.78ZM54.27 13.11L54.7266 12.2203L54.7266 12.2203L54.27 13.11ZM64.35 23.19L63.4531 23.6323L63.4556 23.6372L64.35 23.19ZM61.56 59.19L60.7772 58.5678L60.7722 58.574L60.7674 58.5803L61.56 59.19ZM55.26 64.86L54.7455 64.0025L54.7455 64.0025L55.26 64.86ZM15.57 69H14.57V70H15.57V69ZM15.57 9.6V8.6H14.57V9.6H15.57ZM28.53 9.6H29.53V8.6H28.53V9.6ZM28.53 69V70H29.53V69H28.53ZM22.78 69V58.47H20.78V69H22.78ZM21.78 59.47H39.06V57.47H21.78V59.47ZM39.06 59.47C42.5614 59.47 45.5536 58.7191 47.9742 57.149L46.8858 55.471C44.8664 56.7809 42.2786 57.47 39.06 57.47V59.47ZM47.9899 57.1386C50.3963 55.5126 52.193 53.1834 53.3971 50.2048L51.5429 49.4552C50.467 52.1166 48.9037 54.1074 46.8701 55.4814L47.9899 57.1386ZM53.3971 50.2048C54.5986 47.2326 55.18 43.6471 55.18 39.48H53.18C53.18 43.4729 52.6214 46.7874 51.5429 49.4552L53.3971 50.2048ZM55.18 39.48C55.18 36.0536 54.8135 33.0714 54.0578 30.5526L52.1422 31.1273C52.8265 33.4085 53.18 36.1864 53.18 39.48H55.18ZM54.0597 30.5591C53.3053 27.9814 52.1589 25.8262 50.5948 24.1317L49.1252 25.4883C50.4411 26.9138 51.4547 28.7786 52.1403 31.1209L54.0597 30.5591ZM50.609 24.1474C49.1069 22.4494 47.1907 21.1904 44.8896 20.3594L44.2104 22.2406C46.2293 22.9696 47.8531 24.0506 49.111 25.4726L50.609 24.1474ZM44.8982 20.3626C42.66 19.5313 40.0465 19.13 37.08 19.13V21.13C39.8735 21.13 42.24 21.5087 44.2018 22.2374L44.8982 20.3626ZM37.08 19.13H21.78V21.13H37.08V19.13ZM22.78 20.13V9.6H20.78V20.13H22.78ZM21.78 10.6H36.63V8.6H21.78V10.6ZM36.63 10.6C43.7316 10.6 49.4401 11.7555 53.8134 13.9997L54.7266 12.2203C49.9799 9.7845 43.9284 8.6 36.63 8.6V10.6ZM53.8134 13.9997C58.1926 16.2469 61.393 19.4548 63.4531 23.6323L65.2469 22.7477C62.987 18.1652 59.4675 14.6531 54.7266 12.2203L53.8134 13.9997ZM63.4556 23.6372C65.5307 27.7875 66.59 32.8167 66.59 38.76H68.59C68.59 32.5833 67.4893 27.2325 65.2444 22.7428L63.4556 23.6372ZM66.59 38.76C66.59 43.2448 66.0585 47.0969 65.018 50.334L66.922 50.946C68.0415 47.4631 68.59 43.3952 68.59 38.76H66.59ZM65.018 50.334C63.9683 53.5995 62.55 56.3375 60.7772 58.5678L62.3428 59.8122C64.29 57.3625 65.8117 54.4005 66.922 50.946L65.018 50.334ZM60.7674 58.5803C59.0395 60.8265 57.0323 62.6304 54.7455 64.0025L55.7745 65.7175C58.2877 64.2096 60.4805 62.2335 62.3526 59.7997L60.7674 58.5803ZM54.7455 64.0025C52.431 65.3912 49.9743 66.4026 47.3725 67.0386L47.8475 68.9814C50.6457 68.2974 53.289 67.2088 55.7745 65.7175L54.7455 64.0025ZM47.3725 67.0386C44.7497 67.6797 42.0994 68 39.42 68V70C42.2606 70 45.0703 69.6603 47.8475 68.9814L47.3725 67.0386ZM39.42 68H21.78V70H39.42V68ZM16.57 69V9.6H14.57V69H16.57ZM15.57 10.6H28.53V8.6H15.57V10.6ZM27.53 9.6V69H29.53V9.6H27.53ZM28.53 68H15.57V70H28.53V68Z" fill="#1F1F1F" mask="url(#path-4-outside-1_2_29)"/>
<path opacity="0.7" d="M0 8C0 3.58172 3.58172 0 8 0H31C35.4183 0 39 3.58172 39 8V31C39 35.4183 35.4183 39 31 39H8C3.58172 39 0 35.4183 0 31V8Z" fill="#4AFD3A"/>
</svg>
