<svg width="78" height="78" viewBox="0 0 78 78" fill="none" xmlns="http://www.w3.org/2000/svg">
<path opacity="0.7" d="M39 8C39 3.58172 42.5817 0 47 0H70C74.4183 0 78 3.58172 78 8V31C78 35.4183 74.4183 39 70 39H47C42.5817 39 39 35.4183 39 31V8Z" fill="#7ED957"/>
<path opacity="0.7" d="M0 47C0 42.5817 3.58172 39 8 39H31C35.4183 39 39 42.5817 39 47V70C39 74.4183 35.4183 78 31 78H8C3.58172 78 0 74.4183 0 70V47Z" fill="#5DF11D"/>
<path opacity="0.7" d="M39 47C39 42.5817 42.5817 39 47 39H70C74.4183 39 78 42.5817 78 47V70C78 74.4183 74.4183 78 70 78H47C42.5817 78 39 74.4183 39 70V47Z" fill="#49F154"/>
<path d="M23.65 64V55.225H38.05C40.85 55.225 43.175 54.625 45.025 53.425C46.875 52.175 48.275 50.375 49.225 48.025C50.175 45.675 50.65 42.8 50.65 39.4C50.65 36.6 50.35 34.2 49.75 32.2C49.15 30.15 48.25 28.475 47.05 27.175C45.9 25.875 44.425 24.9 42.625 24.25C40.875 23.6 38.8 23.275 36.4 23.275H23.65V14.5H36.025C42.025 14.5 46.925 15.475 50.725 17.425C54.525 19.375 57.325 22.175 59.125 25.825C60.925 29.425 61.825 33.75 61.825 38.8C61.825 42.6 61.375 45.9 60.475 48.7C59.575 51.5 58.35 53.875 56.8 55.825C55.3 57.775 53.55 59.35 51.55 60.55C49.55 61.75 47.425 62.625 45.175 63.175C42.925 63.725 40.65 64 38.35 64H23.65ZM18.475 64V14.5H29.275V64H18.475Z" fill="#1F1F1F"/>
<path opacity="0.7" d="M0 8C0 3.58172 3.58172 0 8 0H31C35.4183 0 39 3.58172 39 8V31C39 35.4183 35.4183 39 31 39H8C3.58172 39 0 35.4183 0 31V8Z" fill="#4AFD3A" fill-opacity="0.74"/>
</svg>
