<svg width="61" height="69" viewBox="0 0 61 69" fill="none" xmlns="http://www.w3.org/2000/svg">
<g filter="url(#filter0_d_19_60)">
<path fill-rule="evenodd" clip-rule="evenodd" d="M15 3C8.37256 3 3 8.37258 3 15V54C3 60.6274 8.37256 66 15 66H27C44.1208 66 58 52.1208 58 35V34C58 16.8792 44.1208 3 27 3H15ZM38.5169 20.3828C39.479 17.7714 37.5465 15 34.7635 15H22.8793C20.0572 15 18.1225 17.8437 19.1587 20.4687L24.5 34L19.0907 48.0641C18.083 50.6841 20.017 53.5 22.8241 53.5H34.8142C37.5831 53.5 39.5145 50.7546 38.579 48.1485L33.5 34L38.5169 20.3828Z" fill="#0FD93B"/>
<path d="M3.5 15C3.5 8.64872 8.6487 3.5 15 3.5H27C43.8447 3.5 57.5 17.1553 57.5 34V35C57.5 51.8447 43.8447 65.5 27 65.5H15C8.6487 65.5 3.5 60.3513 3.5 54V15ZM34.7635 14.5H22.8793C19.7044 14.5 17.5279 17.6991 18.6936 20.6522L23.9634 34.0024L18.6241 47.8846C17.4904 50.8321 19.6661 54 22.8241 54H34.8142C37.9292 54 40.102 50.9114 39.0496 47.9796L34.032 34.0022L38.986 20.5557C40.0684 17.6178 37.8944 14.5 34.7635 14.5Z" stroke="black" stroke-opacity="0.1"/>
</g>
<g filter="url(#filter1_i_19_60)">
<path d="M15.6203 10H41.5832C44.5433 10 46.478 13.1036 45.1746 15.7613L36.383 33.6883L45.2646 52.2754C46.5332 54.9302 44.5978 58 41.6555 58H15.5416C12.5514 58 10.6184 54.8388 11.9811 52.1771L21.4468 33.6883L12.0794 15.8606C10.6798 13.197 12.6115 10 15.6203 10Z" fill="black" fill-opacity="0.02"/>
</g>
<defs>
<filter id="filter0_d_19_60" x="0" y="0" width="61" height="69" filterUnits="userSpaceOnUse" color-interpolation-filters="sRGB">
<feFlood flood-opacity="0" result="BackgroundImageFix"/>
<feColorMatrix in="SourceAlpha" type="matrix" values="0 0 0 0 0 0 0 0 0 0 0 0 0 0 0 0 0 0 127 0" result="hardAlpha"/>
<feOffset/>
<feGaussianBlur stdDeviation="1.5"/>
<feComposite in2="hardAlpha" operator="out"/>
<feColorMatrix type="matrix" values="0 0 0 0 0 0 0 0 0 0 0 0 0 0 0 0 0 0 0.25 0"/>
<feBlend mode="normal" in2="BackgroundImageFix" result="effect1_dropShadow_19_60"/>
<feBlend mode="normal" in="SourceGraphic" in2="effect1_dropShadow_19_60" result="shape"/>
</filter>
<filter id="filter1_i_19_60" x="11.5363" y="10" width="34.124" height="48" filterUnits="userSpaceOnUse" color-interpolation-filters="sRGB">
<feFlood flood-opacity="0" result="BackgroundImageFix"/>
<feBlend mode="normal" in="SourceGraphic" in2="BackgroundImageFix" result="shape"/>
<feColorMatrix in="SourceAlpha" type="matrix" values="0 0 0 0 0 0 0 0 0 0 0 0 0 0 0 0 0 0 127 0" result="hardAlpha"/>
<feOffset/>
<feGaussianBlur stdDeviation="3"/>
<feComposite in2="hardAlpha" operator="arithmetic" k2="-1" k3="1"/>
<feColorMatrix type="matrix" values="0 0 0 0 0 0 0 0 0 0 0 0 0 0 0 0 0 0 0.25 0"/>
<feBlend mode="normal" in2="shape" result="effect1_innerShadow_19_60"/>
</filter>
</defs>
</svg>
